<mxfile host="app.diagrams.net" modified="2023-07-05T10:39:54.310Z" agent="Mozilla/5.0 (Macintosh; Intel Mac OS X 10_15_7) AppleWebKit/537.36 (KHTML, like Gecko) Chrome/114.0.0.0 Safari/537.36" version="21.3.8" etag="1Jysd4zNcoLaB1TaLHmm" type="github">
  <diagram name="Page-1" id="yWtgO1glUAgRH91HCU5n">
    <mxGraphModel>
      <root>
        <mxCell id="0" />
        <mxCell id="1" parent="0" />
      </root>
    </mxGraphModel>
  </diagram>
</mxfile>
